<?xml version="1.0" standalone="no"?>
<!DOCTYPE svg PUBLIC "-//W3C//DTD SVG 20010904//EN"
 "http://www.w3.org/TR/2001/REC-SVG-20010904/DTD/svg10.dtd">
<svg version="1.0" xmlns="http://www.w3.org/2000/svg"
 width="180.000000pt" height="180.000000pt" viewBox="0 0 180.000000 180.000000"
 preserveAspectRatio="xMidYMid meet">
<metadata>
Created by potrace 1.14, written by Peter Selinger 2001-2017
</metadata>
<g transform="translate(0.000000,180.000000) scale(0.100000,-0.100000)"
fill="#000000" stroke="none">
<path d="M0 900 l0 -900 900 0 900 0 0 900 0 900 -900 0 -900 0 0 -900z m1143
81 c17 -17 -2 -31 -29 -21 -42 16 -78 -7 -82 -51 -4 -47 19 -71 62 -67 25 2
32 8 34 31 5 41 32 35 32 -8 0 -40 -20 -55 -74 -55 -22 0 -45 9 -63 24 -50 43
-32 129 32 157 22 9 75 3 88 -10z m213 -12 c28 -27 36 -66 19 -106 -16 -37
-41 -53 -85 -53 -42 0 -67 15 -86 51 -25 49 1 111 56 132 25 10 73 -2 96 -24z
m-896 -69 c0 -83 -1 -90 -20 -90 -19 0 -20 7 -20 90 0 83 1 90 20 90 19 0 20
-7 20 -90z m127 28 l48 -63 3 63 c2 46 7 62 17 62 12 0 15 -18 15 -90 0 -79
-2 -90 -17 -90 -10 1 -38 28 -63 61 l-45 61 -3 -61 c-3 -53 -6 -61 -22 -61
-18 0 -20 7 -20 90 0 82 2 90 19 90 12 0 38 -24 68 -62z m256 51 c53 -24 62
-96 18 -140 -26 -25 -37 -29 -85 -29 l-56 0 0 90 0 90 50 0 c27 0 60 -5 73
-11z m117 -79 c0 -83 -1 -90 -20 -90 -19 0 -20 7 -20 90 0 83 1 90 20 90 19 0
20 -7 20 -90z"/>
<path d="M1252 954 c-15 -10 -22 -25 -22 -49 0 -41 22 -65 59 -65 56 0 81 70
41 110 -24 24 -48 25 -78 4z"/>
<path d="M760 900 l0 -60 30 0 c33 0 70 30 70 58 0 34 -29 62 -66 62 l-34 0 0
-60z"/>
</g>
</svg>
